<svg width="25" height="18" viewBox="0 0 25 18" fill="none" xmlns="http://www.w3.org/2000/svg">
<path d="M24.5 9C24.5 9.26522 24.3946 9.51957 24.2071 9.70711C24.0196 9.89464 23.7652 10 23.5 10H1.5C1.23478 10 0.98043 9.89464 0.792893 9.70711C0.605357 9.51957 0.5 9.26522 0.5 9C0.5 8.73478 0.605357 8.48043 0.792893 8.29289C0.98043 8.10536 1.23478 8 1.5 8H23.5C23.7652 8 24.0196 8.10536 24.2071 8.29289C24.3946 8.48043 24.5 8.73478 24.5 9ZM1.5 2H23.5C23.7652 2 24.0196 1.89464 24.2071 1.70711C24.3946 1.51957 24.5 1.26522 24.5 1C24.5 0.734784 24.3946 0.48043 24.2071 0.292893C24.0196 0.105357 23.7652 0 23.5 0H1.5C1.23478 0 0.98043 0.105357 0.792893 0.292893C0.605357 0.48043 0.5 0.734784 0.5 1C0.5 1.26522 0.605357 1.51957 0.792893 1.70711C0.98043 1.89464 1.23478 2 1.5 2ZM23.5 16H1.5C1.23478 16 0.98043 16.1054 0.792893 16.2929C0.605357 16.4804 0.5 16.7348 0.5 17C0.5 17.2652 0.605357 17.5196 0.792893 17.7071C0.98043 17.8946 1.23478 18 1.5 18H23.5C23.7652 18 24.0196 17.8946 24.2071 17.7071C24.3946 17.5196 24.5 17.2652 24.5 17C24.5 16.7348 24.3946 16.4804 24.2071 16.2929C24.0196 16.1054 23.7652 16 23.5 16Z" fill="white"/>
</svg>
